<svg width="104" height="22" viewBox="0 0 104 22" fill="none" xmlns="http://www.w3.org/2000/svg">
<path d="M21.2295 10.8936L20.6689 9.9229C20.5381 9.7041 20.2998 9.5596 20.0283 9.5557H12.418L13.6465 7.4288C13.7783 7.1934 13.7734 6.917 13.6523 6.6954L13.6533 6.6963L13.0908 5.7217C13.0264 5.5967 12.9287 5.4893 12.7988 5.4141C12.6689 5.3389 12.5264 5.3077 12.3857 5.3135H11.2656C11.0107 5.3194 10.7666 5.4512 10.6289 5.6856L9.3994 7.8116L5.5967 1.2246V1.2266C5.46 0.992199 5.2178 0.860399 4.9668 0.852599H3.8398C3.7002 0.845699 3.5576 0.876998 3.4268 0.954098C3.2979 1.0264 3.2002 1.1358 3.1338 1.2569L2.5732 2.2295C2.4521 2.4532 2.4443 2.7315 2.5771 2.9668L6.3818 9.5557H1.627C1.3545 9.5596 1.1172 9.7041 0.985399 9.9229L0.424801 10.8936C0.349601 11.0108 0.3076 11.1495 0.3057 11.3003C0.3057 11.4488 0.3506 11.5894 0.4268 11.7066L0.9883 12.6817C1.1211 12.8946 1.3564 13.0391 1.627 13.0411V13.043H6.3818L2.5791 19.6329C2.4443 19.8672 2.4521 20.1465 2.5742 20.3672L3.1338 21.3418C3.2002 21.4629 3.2979 21.5704 3.4268 21.6465C3.5576 21.7207 3.7002 21.752 3.8398 21.7461H4.9668H4.9658C5.2178 21.7383 5.46 21.6055 5.5967 21.3731L9.3994 14.7871L10.6289 16.9141C10.7666 17.1465 11.0107 17.2793 11.2656 17.2852H12.3877C12.5264 17.293 12.668 17.2598 12.7988 17.1836C12.9287 17.1094 13.0264 17.0039 13.0918 16.877L13.6533 15.9043C13.7744 15.6817 13.7783 15.4043 13.6465 15.17L12.4199 13.043H20.0283V13.0411C20.2979 13.0391 20.5332 12.8946 20.666 12.6817L21.2275 11.7066C21.3037 11.5894 21.3486 11.4488 21.3486 11.3003C21.3486 11.1524 21.3037 11.0108 21.2295 10.8936Z" fill="#E30613"/>
<path d="M21.3662 16.0371H22.0127V18.5079H24.8994V16.0371H25.5479V21.7383H24.8994V19.0743H22.0127V21.7383H21.3662V16.0371Z" fill="#57514D"/>
<path d="M26.6533 20.2911V19.25C26.6533 18.1954 27.4209 17.6446 28.3252 17.6446C29.3154 17.6446 30.0117 18.2266 30.0117 19.2422V20.2266C30.0117 21.2735 29.2607 21.8418 28.3486 21.8418C27.3652 21.8418 26.6533 21.3067 26.6533 20.2911ZM29.4033 20.25V19.1875C29.4033 18.5801 29.0439 18.1485 28.3252 18.1485C27.6611 18.1485 27.2529 18.5391 27.2529 19.2188V20.2735C27.2529 20.9063 27.6377 21.3301 28.3486 21.3301C29.0127 21.3301 29.4033 20.9707 29.4033 20.25Z" fill="#57514D"/>
<path d="M30.8701 20.2188V19.3223C30.8701 18.2598 31.5576 17.6446 32.5322 17.6446C33.4521 17.6446 34.1162 18.1641 34.1162 19.0352V19.1387H33.54V19.0039C33.54 18.5547 33.2041 18.1387 32.541 18.1387C31.8779 18.1387 31.4854 18.5957 31.4854 19.2676V20.2344C31.4854 20.8829 31.8291 21.3301 32.5488 21.3301C33.2119 21.3301 33.54 20.9219 33.54 20.4746V20.3614H34.1162V20.4512C34.1162 21.3145 33.4766 21.8418 32.5488 21.8418C31.5498 21.8418 30.8701 21.2579 30.8701 20.2188Z" fill="#57514D"/>
<path d="M35.0615 16.0293H35.6533V18.42H35.6768C35.9492 17.9004 36.4609 17.6368 36.9727 17.6368C37.8281 17.6368 38.2598 18.1954 38.2598 18.9629V21.7383H37.6602V19.1875C37.6602 18.4746 37.3252 18.1563 36.7881 18.1563C36.1807 18.1563 35.6533 18.6114 35.6533 19.3711V21.7383H35.0615V16.0293Z" fill="#57514D"/>
<path d="M39.1816 21.1934L39.5889 20.8575C39.9092 21.1856 40.293 21.3536 40.8047 21.3536C41.2842 21.3536 41.7803 21.1055 41.7803 20.6348C41.7803 20.1856 41.501 20.0586 40.9482 19.9551L40.4854 19.8594C39.7891 19.7227 39.3574 19.4024 39.3574 18.8262C39.3574 18.1309 39.9248 17.627 40.7969 17.627C41.4043 17.627 41.8838 17.7715 42.1963 18.1309L41.7881 18.4434C41.5322 18.2188 41.2197 18.0918 40.7646 18.0918C40.2764 18.0918 39.9404 18.3555 39.9404 18.7383C39.9404 19.1231 40.2686 19.25 40.8125 19.3633L41.4131 19.4903C42.0039 19.6192 42.3955 19.9395 42.3955 20.5293C42.3955 21.4024 41.5889 21.834 40.8125 21.834C40.1572 21.834 39.5576 21.6582 39.1816 21.1934Z" fill="#57514D"/>
<path d="M43.2051 20.2188V19.3223C43.2051 18.2598 43.8936 17.6446 44.8682 17.6446C45.7881 17.6446 46.4521 18.1641 46.4521 19.0352V19.1387H45.876V19.0039C45.876 18.5547 45.54 18.1387 44.876 18.1387C44.2129 18.1387 43.8213 18.5957 43.8213 19.2676V20.2344C43.8213 20.8829 44.165 21.3301 44.8838 21.3301C45.5479 21.3301 45.876 20.9219 45.876 20.4746V20.3614H46.4521V20.4512C46.4521 21.3145 45.8115 21.8418 44.8838 21.8418C43.8848 21.8418 43.2051 21.2579 43.2051 20.2188Z" fill="#57514D"/>
<path d="M47.3975 16.0293H47.9893V18.42H48.0127C48.2842 17.9004 48.7959 17.6368 49.3076 17.6368C50.1631 17.6368 50.5947 18.1954 50.5947 18.9629V21.7383H49.9951V19.1875C49.9951 18.4746 49.6592 18.1563 49.124 18.1563C48.5166 18.1563 47.9893 18.6114 47.9893 19.3711V21.7383H47.3975V16.0293Z" fill="#57514D"/>
<path d="M51.7646 20.4981V17.7246H52.3643V20.2735C52.3643 20.9864 52.708 21.2969 53.2441 21.2969C53.8438 21.2969 54.3711 20.8418 54.3711 20.0821V17.7246H54.9629V21.7383H54.3867V21.0411H54.3711C54.0918 21.5704 53.5879 21.834 53.0508 21.834C52.1963 21.834 51.7646 21.2579 51.7646 20.4981Z" fill="#57514D"/>
<path d="M56.1973 20.7539V16.0293H56.7969V20.7774C56.7969 21.0586 56.9473 21.2735 57.3164 21.2735C57.4766 21.2735 57.6113 21.25 57.7559 21.2344V21.6895C57.5547 21.7539 57.3086 21.7852 57.1152 21.7852C56.3477 21.7852 56.1973 21.2188 56.1973 20.7539Z" fill="#57514D"/>
<path d="M58.4277 20.211V19.3633C58.4277 18.2598 59.1797 17.6446 60.1465 17.6446C61.0352 17.6446 61.7383 18.1797 61.7383 19.2188V19.8496H59.043V20.2657C59.043 20.9219 59.4922 21.3301 60.1953 21.3301C60.6582 21.3301 60.9941 21.0899 61.2109 20.8184L61.666 21.0899C61.3066 21.6504 60.7305 21.8418 60.1543 21.8418C59.1719 21.8418 58.4277 21.3145 58.4277 20.211ZM61.1465 19.4356V19.2032C61.1465 18.5957 60.7871 18.1387 60.1152 18.1387C59.4668 18.1387 59.043 18.6192 59.043 19.2598V19.4356H61.1465Z" fill="#57514D"/>
<path d="M65.0605 16.0371H67.3145C68.3867 16.0371 69.25 16.6602 69.25 17.8282C69.25 18.5079 68.8906 19.211 68.123 19.4825L69.5371 21.7383H68.3789L67.043 19.6036H66.123V21.7383H65.0605V16.0371ZM67.1875 18.7071C67.8027 18.7071 68.2109 18.4121 68.2109 17.8204C68.2109 17.1485 67.7637 16.9317 67.1719 16.9317H66.123V18.7071H67.1875Z" fill="#57514D"/>
<path d="M70.3398 16.0371H71.3145V18.1485H71.3398C71.6113 17.7559 72.043 17.5645 72.4668 17.5645C73.3867 17.5645 73.8984 18.1387 73.8984 19.1153V21.7383H72.9219V19.3633C72.9219 18.7481 72.6582 18.42 72.1621 18.42C71.627 18.42 71.3145 18.7481 71.3145 19.4434V21.7383H70.3398V16.0371Z" fill="#57514D"/>
<path d="M74.8359 20.1621V19.3633C74.8359 18.211 75.6992 17.5723 76.7148 17.5723C77.6016 17.5723 78.4824 18.0918 78.4824 19.1797V19.9707H75.8516V20.1954C75.8516 20.7149 76.2754 21.0176 76.7949 21.0176C77.123 21.0176 77.4668 20.8028 77.6816 20.4903L78.4336 20.9219C78.1133 21.5625 77.4668 21.834 76.7461 21.834C75.7402 21.834 74.8359 21.2813 74.8359 20.1621ZM77.5059 19.2911V19.1797C77.5059 18.6192 77.1152 18.3946 76.7148 18.3946C76.2988 18.3946 75.8516 18.6192 75.8516 19.2344V19.2911H77.5059Z" fill="#57514D"/>
<path d="M79.4844 15.9805H80.459V17.0196H79.4844V15.9805ZM79.4844 17.6446H80.459V21.7383H79.4844V17.6446Z" fill="#57514D"/>
<path d="M81.6367 17.6446H82.5879V18.1485H82.6035C82.875 17.7559 83.3066 17.5645 83.7617 17.5645C84.6816 17.5645 85.1934 18.1387 85.1934 19.1153V21.7383H84.2188V19.3633C84.2188 18.7481 83.9551 18.42 83.459 18.42C82.9238 18.42 82.6113 18.7481 82.6113 19.4434V21.7383H81.6367V17.6446Z" fill="#57514D"/>
<path d="M86.5313 16.0371H87.8281L89.2988 19.6036H89.3145L90.7461 16.0371H92.041V21.7383H91.0176V17.9395H91.002L89.707 21.0821H88.8672L87.5723 17.9551H87.5547V21.7383H86.5313L86.5313 16.0371Z" fill="#57514D"/>
<path d="M93.0039 20.5782C93.0039 19.7871 93.7227 19.3145 94.5156 19.3145H95.6016V18.9395C95.6016 18.5079 95.3145 18.3243 94.8184 18.3243C94.3945 18.3243 94.084 18.4668 94.084 18.7305V18.875H93.2031V18.7637C93.2031 17.8672 94.0586 17.5645 94.8262 17.5645C95.7383 17.5645 96.5781 17.8672 96.5781 18.8672V20.8575C96.5781 21.0411 96.6016 21.6504 96.6504 21.7383H95.6816C95.666 21.6739 95.6504 21.4258 95.6426 21.3614H95.627C95.2656 21.7383 94.9551 21.8184 94.4277 21.8184C93.5801 21.8184 93.0039 21.3536 93.0039 20.5782ZM95.6016 20.2266V20.0274H94.6426C94.2266 20.0274 93.9551 20.17 93.9551 20.5293C93.9551 20.8731 94.2344 21.0508 94.6914 21.0508C95.4746 21.0508 95.6016 20.6661 95.6016 20.2266Z" fill="#57514D"/>
<path d="M97.7168 15.9805H98.6914V17.0196H97.7168V15.9805ZM97.7168 17.6446H98.6914V21.7383H97.7168V17.6446Z" fill="#57514D"/>
<path d="M99.8672 17.6446H100.818V18.1485H100.836C101.107 17.7559 101.539 17.5645 101.994 17.5645C102.914 17.5645 103.426 18.1387 103.426 19.1153V21.7383H102.451V19.3633C102.451 18.7481 102.185 18.42 101.691 18.42C101.154 18.42 100.844 18.7481 100.844 19.4434V21.7383H99.8672V17.6446Z" fill="#57514D"/>
</svg>
