<svg width="22" height="22" viewBox="0 0 22 22" fill="none" xmlns="http://www.w3.org/2000/svg">
<path d="M21.2295 10.8936L20.6689 9.9229C20.5381 9.7041 20.2998 9.5596 20.0283 9.5557H12.418L13.6465 7.4288C13.7783 7.1934 13.7734 6.917 13.6523 6.6954L13.6533 6.6963L13.0908 5.7217C13.0264 5.5967 12.9287 5.4893 12.7988 5.4141C12.6689 5.3389 12.5264 5.3077 12.3857 5.3135H11.2656C11.0107 5.3194 10.7666 5.4512 10.6289 5.6856L9.3994 7.8116L5.5967 1.2246V1.2266C5.46 0.992201 5.2178 0.8604 4.9668 0.8526H3.8398C3.7002 0.8457 3.5576 0.877 3.4268 0.9541C3.2979 1.0264 3.2002 1.1358 3.1338 1.2569L2.5732 2.2295C2.4521 2.4532 2.4443 2.7315 2.5771 2.9668L6.3818 9.5557H1.627C1.3545 9.5596 1.1172 9.7041 0.985399 9.9229L0.424801 10.8936C0.349601 11.0108 0.3076 11.1495 0.3057 11.3003C0.3057 11.4488 0.3506 11.5894 0.4268 11.7066L0.9883 12.6817C1.1211 12.8946 1.3564 13.0391 1.627 13.0411V13.043H6.3818L2.5791 19.6329C2.4443 19.8672 2.4521 20.1465 2.5742 20.3672L3.1338 21.3418C3.2002 21.4629 3.2979 21.5704 3.4268 21.6465C3.5576 21.7207 3.7002 21.752 3.8398 21.7461H4.9668H4.9658C5.2178 21.7383 5.46 21.6055 5.5967 21.3731L9.3994 14.7871L10.6289 16.9141C10.7666 17.1465 11.0107 17.2793 11.2656 17.2852H12.3877C12.5264 17.293 12.668 17.2598 12.7988 17.1836C12.9287 17.1094 13.0264 17.0039 13.0918 16.877L13.6533 15.9043C13.7744 15.6817 13.7783 15.4043 13.6465 15.17L12.4199 13.043H20.0283V13.0411C20.2979 13.0391 20.5332 12.8946 20.666 12.6817L21.2275 11.7066C21.3037 11.5894 21.3486 11.4488 21.3486 11.3003C21.3486 11.1524 21.3037 11.0108 21.2295 10.8936Z" fill="#E30613"/>
</svg>
